<svg id="Layer_1" viewBox="0 0 100 100" xmlns="http://www.w3.org/2000/svg" data-name="Layer 1"><g stroke="#40474e" stroke-miterlimit="10" stroke-width="2"><path d="m29.93 83.29v-19.07a8.94 8.94 0 0 0 -17.88 0v19.07z" fill="none"/><path d="m26 83.29v-11.57a5.28 5.28 0 0 0 -5-5.42 5.27 5.27 0 0 0 -5.07 5.42v11.57z" fill="none"/><path d="m12.75 60.9h16.48" fill="none"/><path d="m20.75 50.71v4.41" fill="none"/><path d="m26.83 40.84h15.72" fill="none"/><path d="m29.93 35.34h9.88v47.95h-9.88z" fill="none"/><path d="m29.05 24.46h11.38" fill="#fff"/><path d="m35.18 16.71v3.26" fill="#fff"/><path d="m18.63 58.16v1.75" fill="#fff"/><path d="m23.23 58.16v1.75" fill="#fff"/><g fill="none"><path d="m37.68 35.34v-13a2.5 2.5 0 1 0 -5 0v13z"/><path d="m29.93 49.5h9.87"/><path d="m39.8 54.25-9.87 5.06"/><path d="m39.8 64.45-9.87 5.06"/><path d="m39.8 74.65-9.87 5.06"/><path d="m70.07 83.29v-19.07a8.94 8.94 0 0 1 17.88 0v19.07z"/><path d="m74 83.29v-11.57a5.09 5.09 0 1 1 10.15 0v11.57z"/><path d="m87.25 60.9h-16.48"/><path d="m79.25 50.71v4.41"/><path d="m73.18 40.84h-15.73"/><path d="m60.2 35.34h9.88v47.95h-9.88z"/></g><path d="m70.95 24.46h-11.37" fill="#fff"/><path d="m64.83 16.71v3.26" fill="#fff"/><path d="m81.37 58.16v1.75" fill="#fff"/><path d="m76.77 58.16v1.75" fill="#fff"/><path d="m62.33 35.34v-13a2.5 2.5 0 0 1 5 0v13z" fill="none"/><path d="m70.08 49.5h-9.88" fill="none"/><path d="m70.07 54.25-9.87 5.06" fill="none"/><path d="m70.07 64.45-9.87 5.06" fill="none"/><path d="m70.07 74.65-9.87 5.06" fill="none"/><path d="m60.18 83.29v-30.85a10.19 10.19 0 0 0 -20.38 0v30.85z" fill="none"/><path d="m39.87 51.25h20.23" fill="none"/><path d="m49.99 39.09v3.16" fill="none"/><path d="m53.47 83.09v-21.22a3.71 3.71 0 0 0 -7.42 0v21.22z" fill="none"/></g></svg>