<svg id="Layer_1" viewBox="0 0 512 512" xmlns="http://www.w3.org/2000/svg" data-name="Layer 1"><path d="m297 427h-81a5 5 0 0 1 -5-5v-279.5a45.5 45.5 0 0 1 91 0v279.5a5 5 0 0 1 -5 5zm-76-10h71v-274.5a35.5 35.5 0 0 0 -71 0z"/><path d="m178 427h-81a5 5 0 0 1 -5-5v-215.3a45.5 45.5 0 0 1 91 0v215.3a5 5 0 0 1 -5 5zm-76-10h71v-210.3a35.5 35.5 0 0 0 -71 0z"/><path d="m335 427h-38a5 5 0 0 1 -5-5v-286a24 24 0 0 1 48 0v286a5 5 0 0 1 -5 5zm-33-10h28v-281a14 14 0 0 0 -28 0z"/><path d="m97 427h-38a5 5 0 0 1 -5-5v-225a24 24 0 0 1 48 0v225a5 5 0 0 1 -5 5zm-33-10h28v-220a14 14 0 0 0 -28 0z"/><path d="m454 427h-38a5 5 0 0 1 -5-5v-225a24 24 0 0 1 48 0v225a5 5 0 0 1 -5 5zm-33-10h28v-220a14 14 0 0 0 -28 0z"/><path d="m216 427h-38a5 5 0 0 1 -5-5v-286a24 24 0 0 1 48 0v286a5 5 0 0 1 -5 5zm-33-10h28v-281a14 14 0 0 0 -28 0z"/><path d="m454 427h-395a5 5 0 0 1 0-10h395a5 5 0 0 1 0 10z"/><path d="m276 171h-38a5 5 0 0 1 -5-5v-16a24 24 0 0 1 48 0v16a5 5 0 0 1 -5 5zm-33-10h28v-11a14 14 0 0 0 -28 0z"/><path d="m276 235h-38a5 5 0 0 1 -5-5v-16a24 24 0 0 1 48 0v16a5 5 0 0 1 -5 5zm-33-10h28v-11a14 14 0 0 0 -28 0z"/><path d="m276 299h-38a5 5 0 0 1 -5-5v-16a24 24 0 0 1 48 0v16a5 5 0 0 1 -5 5zm-33-10h28v-11a14 14 0 0 0 -28 0z"/><path d="m276 363h-38a5 5 0 0 1 -5-5v-16a24 24 0 0 1 48 0v16a5 5 0 0 1 -5 5zm-33-10h28v-11a14 14 0 0 0 -28 0z"/><path d="m276 427h-38a5 5 0 0 1 -5-5v-16a24 24 0 0 1 48 0v16a5 5 0 0 1 -5 5zm-33-10h28v-11a14 14 0 0 0 -28 0z"/><path d="m297 171h-81a5 5 0 0 1 0-10h81a5 5 0 0 1 0 10z"/><path d="m297 235h-81a5 5 0 0 1 0-10h81a5 5 0 0 1 0 10z"/><path d="m297 299h-81a5 5 0 0 1 0-10h81a5 5 0 0 1 0 10z"/><path d="m297 363h-81a5 5 0 0 1 0-10h81a5 5 0 0 1 0 10z"/><path d="m416 427h-81a5 5 0 0 1 -5-5v-215.3a45.5 45.5 0 0 1 91 0v215.3a5 5 0 0 1 -5 5zm-76-10h71v-210.3a35.5 35.5 0 0 0 -71 0z"/><path d="m395 235h-38a5 5 0 0 1 -5-5v-16a24 24 0 0 1 48 0v16a5 5 0 0 1 -5 5zm-33-10h28v-11a14 14 0 0 0 -28 0z"/><path d="m395 299h-38a5 5 0 0 1 -5-5v-16a24 24 0 0 1 48 0v16a5 5 0 0 1 -5 5zm-33-10h28v-11a14 14 0 0 0 -28 0z"/><path d="m395 363h-38a5 5 0 0 1 -5-5v-16a24 24 0 0 1 48 0v16a5 5 0 0 1 -5 5zm-33-10h28v-11a14 14 0 0 0 -28 0z"/><path d="m395 427h-38a5 5 0 0 1 -5-5v-16a24 24 0 0 1 48 0v16a5 5 0 0 1 -5 5zm-33-10h28v-11a14 14 0 0 0 -28 0z"/><path d="m416 235h-81a5 5 0 0 1 0-10h81a5 5 0 0 1 0 10z"/><path d="m416 299h-81a5 5 0 0 1 0-10h81a5 5 0 0 1 0 10z"/><path d="m416 363h-81a5 5 0 0 1 0-10h81a5 5 0 0 1 0 10z"/><path d="m157 235h-38a5 5 0 0 1 -5-5v-16a24 24 0 0 1 48 0v16a5 5 0 0 1 -5 5zm-33-10h28v-11a14 14 0 0 0 -28 0z"/><path d="m157 299h-38a5 5 0 0 1 -5-5v-16a24 24 0 0 1 48 0v16a5 5 0 0 1 -5 5zm-33-10h28v-11a14 14 0 0 0 -28 0z"/><path d="m157 363h-38a5 5 0 0 1 -5-5v-16a24 24 0 0 1 48 0v16a5 5 0 0 1 -5 5zm-33-10h28v-11a14 14 0 0 0 -28 0z"/><path d="m157 427h-38a5 5 0 0 1 -5-5v-16a24 24 0 0 1 48 0v16a5 5 0 0 1 -5 5zm-33-10h28v-11a14 14 0 0 0 -28 0z"/><path d="m178 235h-81a5 5 0 0 1 0-10h81a5 5 0 0 1 0 10z"/><path d="m178 299h-81a5 5 0 0 1 0-10h81a5 5 0 0 1 0 10z"/><path d="m178 363h-81a5 5 0 0 1 0-10h81a5 5 0 0 1 0 10z"/><path d="m256 107a5 5 0 0 1 -5-5v-12a5 5 0 1 1 10 0v12a5 5 0 0 1 -5 5z"/><path d="m137 171a5 5 0 0 1 -5-5v-12a5 5 0 0 1 10 0v12a5 5 0 0 1 -5 5z"/><path d="m376 171a5 5 0 0 1 -5-5v-12a5 5 0 0 1 10 0v12a5 5 0 0 1 -5 5z"/><path d="m316 154a5 5 0 0 1 -5-5v-6a5 5 0 0 1 10 0v6a5 5 0 0 1 -5 5z"/><path d="m316 218a5 5 0 0 1 -5-5v-6a5 5 0 0 1 10 0v6a5 5 0 0 1 -5 5z"/><path d="m316 282a5 5 0 0 1 -5-5v-6a5 5 0 0 1 10 0v6a5 5 0 0 1 -5 5z"/><path d="m316 346a5 5 0 0 1 -5-5v-6a5 5 0 0 1 10 0v6a5 5 0 0 1 -5 5z"/><path d="m316 410a5 5 0 0 1 -5-5v-6a5 5 0 0 1 10 0v6a5 5 0 0 1 -5 5z"/><path d="m196 154a5 5 0 0 1 -5-5v-6a5 5 0 0 1 10 0v6a5 5 0 0 1 -5 5z"/><path d="m196 218a5 5 0 0 1 -5-5v-6a5 5 0 0 1 10 0v6a5 5 0 0 1 -5 5z"/><path d="m196 282a5 5 0 0 1 -5-5v-6a5 5 0 0 1 10 0v6a5 5 0 0 1 -5 5z"/><path d="m196 346a5 5 0 0 1 -5-5v-6a5 5 0 0 1 10 0v6a5 5 0 0 1 -5 5z"/><path d="m196 410a5 5 0 0 1 -5-5v-6a5 5 0 0 1 10 0v6a5 5 0 0 1 -5 5z"/><path d="m435 218a5 5 0 0 1 -5-5v-6a5 5 0 0 1 10 0v6a5 5 0 0 1 -5 5z"/><path d="m435 282a5 5 0 0 1 -5-5v-6a5 5 0 0 1 10 0v6a5 5 0 0 1 -5 5z"/><path d="m435 346a5 5 0 0 1 -5-5v-6a5 5 0 0 1 10 0v6a5 5 0 0 1 -5 5z"/><path d="m435 410a5 5 0 0 1 -5-5v-6a5 5 0 0 1 10 0v6a5 5 0 0 1 -5 5z"/><path d="m78 218a5 5 0 0 1 -5-5v-6a5 5 0 0 1 10 0v6a5 5 0 0 1 -5 5z"/><path d="m78 282a5 5 0 0 1 -5-5v-6a5 5 0 0 1 10 0v6a5 5 0 0 1 -5 5z"/><path d="m78 346a5 5 0 0 1 -5-5v-6a5 5 0 0 1 10 0v6a5 5 0 0 1 -5 5z"/><path d="m78 410a5 5 0 0 1 -5-5v-6a5 5 0 0 1 10 0v6a5 5 0 0 1 -5 5z"/></svg>