<svg xmlns="http://www.w3.org/2000/svg" version="1.1" xmlns:xlink="http://www.w3.org/1999/xlink" width="512" height="512" x="0" y="0" viewBox="0 0 512 512" style="enable-background:new 0 0 512 512" xml:space="preserve" class=""><g><path d="M56.5 205.667V11.5a4 4 0 0 1 4-4h336a4 4 0 0 1 4 4v39.389M104.778 504.5H60.5a4 4 0 0 1-4-4V349.667M400.5 359.667V500.5a4 4 0 0 1-4 4H140.111M400.5 87.333v87.334" style="stroke-width:15;stroke-linecap:round;stroke-linejoin:round;stroke-miterlimit:10;" fill="none" stroke="#0d5ef4" stroke-width="15" stroke-linecap="round" stroke-linejoin="round" stroke-miterlimit="10" data-original="#000000" opacity="1"></path><circle cx="153.181" cy="102.839" r="65" style="stroke-width:15;stroke-linecap:round;stroke-linejoin:round;stroke-miterlimit:10;" fill="none" stroke="#0d5ef4" stroke-width="15" stroke-linecap="round" stroke-linejoin="round" stroke-miterlimit="10" data-original="#000000" opacity="1"></circle><circle cx="153.181" cy="94.406" r="24" style="stroke-width:15;stroke-linecap:round;stroke-linejoin:round;stroke-miterlimit:10;" fill="none" stroke="#0d5ef4" stroke-width="15" stroke-linecap="round" stroke-linejoin="round" stroke-miterlimit="10" data-original="#000000" opacity="1"></circle><path d="M110.581 150.31c5.389-18.432 22.424-31.901 42.599-31.901 19.94 0 36.813 13.157 42.406 31.258M270.387 70.406h41.886M270.387 98.879h67.363M270.387 127.353h67.363M337.195 464.833H92.819a4.638 4.638 0 0 1-4.638-4.638v-37.724a4.638 4.638 0 0 1 4.638-4.638h244.376a4.638 4.638 0 0 1 4.638 4.638v37.724a4.637 4.637 0 0 1-4.638 4.638zM125.455 347H19.545C12.893 347 7.5 341.607 7.5 334.955v-115.91C7.5 212.393 12.893 207 19.545 207h105.91c6.652 0 12.045 5.393 12.045 12.045v115.91c0 6.652-5.393 12.045-12.045 12.045zM41.668 248.526H80.01M41.668 277h61.664M41.668 305.474h61.664M293.611 347H186.113c-6.652 0-12.045-5.393-12.045-12.045v-115.91c0-6.652 5.393-12.045 12.045-12.045h88.72M208.236 248.526h49.312M208.236 277h45.931M208.236 305.474H261M438.377 326.456l61.757 61.757c5.82 5.82 5.82 15.257 0 21.078h0c-5.82 5.82-15.257 5.82-21.078 0l-60.758-60.758" style="stroke-width:15;stroke-linecap:round;stroke-linejoin:round;stroke-miterlimit:10;" fill="none" stroke="#0d5ef4" stroke-width="15" stroke-linecap="round" stroke-linejoin="round" stroke-miterlimit="10" data-original="#000000" opacity="1"></path><circle cx="356.5" cy="267.157" r="100" style="stroke-width:15;stroke-linecap:round;stroke-linejoin:round;stroke-miterlimit:10;" fill="none" stroke="#0d5ef4" stroke-width="15" stroke-linecap="round" stroke-linejoin="round" stroke-miterlimit="10" data-original="#000000" opacity="1"></circle><circle cx="356.5" cy="267.157" r="70" style="stroke-width:15;stroke-linecap:round;stroke-linejoin:round;stroke-miterlimit:10;" transform="rotate(-22.5 356.483 267.147)" fill="none" stroke="#0d5ef4" stroke-width="15" stroke-linecap="round" stroke-linejoin="round" stroke-miterlimit="10" data-original="#000000" opacity="1"></circle><path d="m329.692 268.355 24.468 18.524 33.318-37.444" style="stroke-width:15;stroke-linecap:round;stroke-linejoin:round;stroke-miterlimit:10;" fill="none" stroke="#0d5ef4" stroke-width="15" stroke-linecap="round" stroke-linejoin="round" stroke-miterlimit="10" data-original="#000000" opacity="1"></path></g></svg>