<svg xmlns="http://www.w3.org/2000/svg" version="1.1" xmlns:xlink="http://www.w3.org/1999/xlink" width="512" height="512" x="0" y="0" viewBox="0 0 64 64" style="enable-background:new 0 0 512 512" xml:space="preserve" class=""><g><path d="M55.172 46.009a6.5 6.5 0 1 0-9.344 0 6.863 6.863 0 0 0-1.846.285A8.953 8.953 0 0 0 38 44h-.726a8 8 0 1 0-10.548 0H26a8.953 8.953 0 0 0-5.982 2.294 6.864 6.864 0 0 0-1.846-.286 6.5 6.5 0 1 0-9.344 0A7.004 7.004 0 0 0 2 53v8a1 1 0 0 0 2 0v-8a5.006 5.006 0 0 1 5-5h9c.17 0 .33.03.494.046A8.944 8.944 0 0 0 17 53v8a1 1 0 0 0 2 0v-8a7.008 7.008 0 0 1 7-7h2.307l1.163 3.1-1.456 8.735a1 1 0 0 0 .279.872l3 3a1 1 0 0 0 1.414 0l3-3a1 1 0 0 0 .28-.872L34.53 49.1l1.163-3.1H38a7.008 7.008 0 0 1 7 7v8a1 1 0 0 0 2 0v-8a8.944 8.944 0 0 0-1.494-4.954c.165-.015.324-.046.494-.046h9a5.006 5.006 0 0 1 5 5v8a1 1 0 0 0 2 0v-8a7.004 7.004 0 0 0-6.828-6.991ZM13.5 37A4.5 4.5 0 1 1 9 41.5a4.505 4.505 0 0 1 4.5-4.5ZM26 38a6 6 0 1 1 6 6 6.007 6.007 0 0 1-6-6Zm6 21.586-1.929-1.93L31.347 50h1.306l1.276 7.657ZM32.807 48h-1.614l-.75-2h3.114ZM50.5 37a4.5 4.5 0 1 1-4.5 4.5 4.505 4.505 0 0 1 4.5-4.5ZM9 55v6a1 1 0 0 1-2 0v-6a1 1 0 0 1 2 0Zm48 0v6a1 1 0 0 1-2 0v-6a1 1 0 0 1 2 0Zm-33 0v6a1 1 0 0 1-2 0v-6a1 1 0 0 1 2 0Zm18 0v6a1 1 0 0 1-2 0v-6a1 1 0 0 1 2 0Zm9-26a8 8 0 1 0-8-8 8.01 8.01 0 0 0 8 8Zm0-14a6 6 0 1 1-6 6 6.007 6.007 0 0 1 6-6Zm-3.207 7.793L49.586 21l-1.793-1.793a1 1 0 0 1 1.414-1.414L51 19.586l1.793-1.793a1 1 0 1 1 1.414 1.414L52.414 21l1.793 1.793a1 1 0 1 1-1.414 1.414L51 22.414l-1.793 1.793a1 1 0 0 1-1.414-1.414ZM13 29a8 8 0 1 0-8-8 8.01 8.01 0 0 0 8 8Zm0-14a6 6 0 1 1-6 6 6.007 6.007 0 0 1 6-6Zm-3.207 7.793L11.586 21l-1.793-1.793a1 1 0 0 1 1.414-1.414L13 19.586l1.793-1.793a1 1 0 0 1 1.414 1.414L14.414 21l1.793 1.793a1 1 0 1 1-1.414 1.414L13 22.414l-1.793 1.793a1 1 0 0 1-1.414-1.414ZM32 22a10 10 0 1 0-10-10 10.011 10.011 0 0 0 10 10Zm0-18a8 8 0 1 1-8 8 8.01 8.01 0 0 1 8-8Zm-2.707 11.707-3-3a1 1 0 0 1 1.414-1.414L30 13.586l5.293-5.293a1 1 0 1 1 1.414 1.414l-6 6a1 1 0 0 1-1.414 0Z" data-name="05-Candidate" fill="#0d5ef4" opacity="1" data-original="#000000" class=""></path></g></svg>