<svg xmlns="http://www.w3.org/2000/svg" version="1.1" xmlns:xlink="http://www.w3.org/1999/xlink" width="512" height="512" x="0" y="0" viewBox="0 0 512 512" style="enable-background:new 0 0 512 512" xml:space="preserve" class=""><g><path fill-rule="evenodd" d="M256 252.5a56.5 56.5 0 1 1-56.5 56.5 56.5 56.5 0 0 1 56.5-56.5zM153.772 149.491a5.461 5.461 0 0 0 3.645 5.32l32.243 12.243 3.812-46.45-39.7-14.039zm47.684 22.042 52.506 19.938a5.491 5.491 0 0 0 4.076 0l96.545-36.66a5.46 5.46 0 0 0 3.645-5.32v-42.926l-96.3 34.053a17.184 17.184 0 0 1-11.862 0l-44.777-15.834-3.836 46.749zm156.772-5.159c0 4.2.811 8.4-3.645 10.1l-96.545 36.66a5.481 5.481 0 0 1-4.076 0l-54.229-20.592.693-8.448L249.7 202.8a17.168 17.168 0 0 0 12.608 0l95.924-36.424zM188.63 179.61l-.693 8.449-30.52-11.589c-4.456-1.692-3.645-5.9-3.645-10.1zm-6.4 56.713V266.5h15.65v-30.18a7.825 7.825 0 0 0-15.65 0zm-12.13 36.246a6.067 6.067 0 0 0 6.067 6.067h27.783a6.067 6.067 0 0 0 6.067-6.067v-36.246a19.968 19.968 0 0 0-12.362-18.462l1.047-12.767 50.998 19.364a17.173 17.173 0 0 0 12.608 0l96.545-36.66a17.671 17.671 0 0 0 11.512-16.648v-68.876l46.753-16.534a9.966 9.966 0 0 0 5.02-14.88l.011-.007a9.842 9.842 0 0 0-5.031-3.919L261.931 12.056a17.184 17.184 0 0 0-11.862 0L94.882 66.934a9.966 9.966 0 0 0-5.02 14.88l-.011.007a9.846 9.846 0 0 0 5.031 3.919l46.757 16.534v68.876a17.67 17.67 0 0 0 11.512 16.65l33.755 12.817-1.333 16.255a19.975 19.975 0 0 0-15.473 19.451zm82.392-201.161-53.546 38.285-94.326-33.356L254.1 23.478a5.426 5.426 0 0 1 3.8 0l149.48 52.859L257.9 129.2a5.426 5.426 0 0 1-3.8 0l-41.233-14.581 46.642-33.348a6.05 6.05 0 1 0-7.015-9.858zM180.31 384.451a46.142 46.142 0 0 0-20.214-4.563h-44.383a47.4 47.4 0 0 0-47.24 47.241v5.6A102.119 102.119 0 0 0 152.85 458.9a6.043 6.043 0 0 1-1.646-4.155v-10.693a75.744 75.744 0 0 1 29.106-59.6zm-10.889 73.12q-3.112-2.6-6.084-5.39v-8.129a63.848 63.848 0 0 1 63.644-63.644h58.039a63.322 63.322 0 0 1 12.454 1.232v-.023a63.936 63.936 0 0 1 51.185 62.435v8.122l-6.033 5.337.01.012-9.765 7.416a135.4 135.4 0 0 1-158.171-3.185l-5.277-4.183zm-5.093 11.44a114.263 114.263 0 0 1-105.817-29.052 6.055 6.055 0 0 1-2.172-4.651v-8.179a59.533 59.533 0 0 1 59.374-59.374H160.1A59.266 59.266 0 0 1 191.784 377a75.133 75.133 0 0 1 35.2-8.721h58.036a75.326 75.326 0 0 1 14.824 1.469v.023A75.178 75.178 0 0 1 320.2 377a59.029 59.029 0 0 1 31.709-9.249h44.383a59.608 59.608 0 0 1 59.374 59.374v8.178h-.018c0 3.213-2.379 4.939-4.755 7.1l-3.688 3.212-.01-.012c-27.125 23.031-64.859 31.61-99.523 23.405a147.341 147.341 0 0 1-183.339 0zm-26.423-196.847A44.634 44.634 0 1 1 93.27 316.8a44.636 44.636 0 0 1 44.635-44.634zm22.982 21.652a32.5 32.5 0 1 0 0 45.964 32.5 32.5 0 0 0 0-45.964zM359.128 458.9a102.139 102.139 0 0 0 80.309-22.56l-.01-.011 4.1-3.606v-5.594a47.341 47.341 0 0 0-47.24-47.241H351.9a46.7 46.7 0 0 0-20.235 4.571 75.81 75.81 0 0 1 29.135 59.593v10.693h-.018a6.034 6.034 0 0 1-1.651 4.155zM374.1 272.164a44.634 44.634 0 1 1-44.639 44.636 44.635 44.635 0 0 1 44.639-44.636zm22.982 21.652a32.5 32.5 0 1 0 0 45.964 32.5 32.5 0 0 0 0-45.964zm-109.7-16.189a44.368 44.368 0 1 0 0 62.747 44.371 44.371 0 0 0-.009-62.747z" fill="#0d5ef4" opacity="1" data-original="#000000"></path></g></svg>