<svg xmlns="http://www.w3.org/2000/svg" version="1.1" xmlns:xlink="http://www.w3.org/1999/xlink" width="512" height="512" x="0" y="0" viewBox="0 0 512 512" style="enable-background:new 0 0 512 512" xml:space="preserve" class=""><g><path d="M507.996 458.544c-1.017-27.96-22.907-49.611-58.109-58.565 10.297-9.574 16.756-23.224 16.756-38.361 0-12.499-4.405-23.984-11.735-33V173.213h7.81a5.995 5.995 0 0 0 5.995-5.995V138.73a5.995 5.995 0 0 0-5.995-5.995H346.37V75.163h11.24a5.995 5.995 0 0 0 5.995-5.995V40.68a5.995 5.995 0 0 0-5.995-5.995h-31.224V12.192a5.995 5.995 0 0 0-5.995-5.995H191.613a5.995 5.995 0 0 0-5.995 5.995v22.493h-31.252a5.995 5.995 0 0 0-5.995 5.995v28.488a5.995 5.995 0 0 0 5.995 5.995h11.268v57.572H49.283a5.995 5.995 0 0 0-5.995 5.995v28.488a5.995 5.995 0 0 0 5.995 5.995h7.81v155.406c-7.331 9.016-11.735 20.501-11.735 33 0 15.136 6.459 28.787 16.756 38.361-35.203 8.953-57.093 30.604-58.11 58.565a5.252 5.252 0 0 0-.004.218v41.046a5.995 5.995 0 0 0 5.995 5.995h492.009a5.995 5.995 0 0 0 5.995-5.995v-41.046c0-.073 0-.146-.004-.218zm-93.752-56.517c-22.281 0-40.408-18.127-40.408-40.408s18.127-40.408 40.408-40.408 40.408 18.127 40.408 40.408-18.127 40.408-40.408 40.408zm-79.173 21.744c-10.047-10.838-24.891-19.081-43.438-23.796 9.884-9.192 16.215-22.143 16.705-36.556h53.553c.49 14.411 6.82 27.36 16.701 36.552-18.379 4.669-33.366 12.849-43.522 23.8zm-158.152-.012c-10.155-10.945-25.138-19.121-43.511-23.789 9.881-9.192 16.211-22.141 16.701-36.552h53.525c.49 14.416 6.824 27.368 16.711 36.561-18.539 4.715-33.378 12.952-43.425 23.78zm38.659-62.14c0-22.281 18.127-40.408 40.408-40.408s40.408 18.127 40.408 40.408-18.127 40.408-40.408 40.408-40.408-18.127-40.408-40.408zm227.339-43.825a52.075 52.075 0 0 0-28.672-8.574c-25.406 0-46.639 18.177-51.396 42.208h-16.48V173.213h96.548zm13.804-173.068v16.498H346.368v-16.498zM197.606 18.187h116.788v16.498H197.606zm-37.247 28.488h191.254v16.498H160.359zm174.019 28.488v276.265h-26.997c-4.757-24.031-25.99-42.208-51.395-42.208s-46.639 18.177-51.396 42.208h-26.968V75.163zM55.279 144.726h110.353v16.498H55.279zm110.353 28.488v178.215h-16.48c-4.757-24.031-25.99-42.208-51.395-42.208a52.076 52.076 0 0 0-28.673 8.574V173.214zM57.348 361.619c0-22.281 18.127-40.408 40.408-40.408s40.408 18.127 40.408 40.408-18.127 40.408-40.408 40.408-40.408-18.127-40.408-40.408zM15.99 458.874c1.149-29.632 31.476-44.937 60.137-49.549 6.599 3.004 13.918 4.691 21.629 4.691s15.036-1.689 21.636-4.695c21.974 3.511 39.931 12.214 50.171 24.224-4.463 7.526-6.999 15.928-7.329 24.998a5.252 5.252 0 0 0-.004.218v35.051H15.99zm310.494 34.939H174.221v-34.938c1.149-29.632 31.476-44.937 60.137-49.549 6.599 3.004 13.918 4.691 21.629 4.691s15.035-1.689 21.636-4.695c28.653 4.606 58.98 19.91 60.129 49.552v34.938h-11.268zm169.526 0H349.742v-35.051c0-.073 0-.146-.004-.218-.33-9.063-2.861-17.46-7.315-24.981 10.237-12.019 28.201-20.728 50.185-24.241 6.601 3.006 13.923 4.695 21.637 4.695s15.03-1.688 21.629-4.691c28.661 4.612 58.988 19.917 60.136 49.549zM206.011 149.459h100.12a5.995 5.995 0 0 0 5.995-5.995v-41.272a5.995 5.995 0 0 0-5.995-5.995h-100.12a5.995 5.995 0 0 0-5.995 5.995v41.272a5.995 5.995 0 0 0 5.995 5.995zm5.995-41.272h88.129v29.282h-88.129zm58.677 71.816a5.995 5.995 0 0 1-5.995 5.995h-17.234a5.995 5.995 0 1 1 0-11.99h17.234a5.995 5.995 0 0 1 5.995 5.995zm41.443 93.94a5.995 5.995 0 0 1-5.995 5.995h-17.234a5.995 5.995 0 1 1 0-11.99h17.234a5.995 5.995 0 0 1 5.995 5.995zm-41.443 0a5.995 5.995 0 0 1-5.995 5.995h-17.234a5.995 5.995 0 1 1 0-11.99h17.234a5.995 5.995 0 0 1 5.995 5.995zm0-31.294a5.995 5.995 0 0 1-5.995 5.995h-17.234a5.995 5.995 0 1 1 0-11.99h17.234a5.995 5.995 0 0 1 5.995 5.995zm0-31.323a5.995 5.995 0 0 1-5.995 5.995h-17.234a5.995 5.995 0 1 1 0-11.99h17.234a5.995 5.995 0 0 1 5.995 5.995zm41.443 31.323a5.995 5.995 0 0 1-5.995 5.995h-17.234a5.995 5.995 0 1 1 0-11.99h17.234a5.995 5.995 0 0 1 5.995 5.995zm-112.11 31.294a5.995 5.995 0 0 1 5.995-5.995h17.235a5.995 5.995 0 1 1 0 11.99h-17.235a5.995 5.995 0 0 1-5.995-5.995zm112.11-62.617a5.995 5.995 0 0 1-5.995 5.995h-17.234a5.995 5.995 0 1 1 0-11.99h17.234a5.995 5.995 0 0 1 5.995 5.995zm-112.11 31.323a5.995 5.995 0 0 1 5.995-5.995h17.235a5.995 5.995 0 1 1 0 11.99h-17.235a5.995 5.995 0 0 1-5.995-5.995zm0-31.323a5.995 5.995 0 0 1 5.995-5.995h17.235a5.995 5.995 0 1 1 0 11.99h-17.235a5.995 5.995 0 0 1-5.995-5.995zm112.11-31.323a5.995 5.995 0 0 1-5.995 5.995h-17.234a5.995 5.995 0 1 1 0-11.99h17.234a5.995 5.995 0 0 1 5.995 5.995zm-112.11 0a5.995 5.995 0 0 1 5.995-5.995h17.235a5.995 5.995 0 1 1 0 11.99h-17.235a5.995 5.995 0 0 1-5.995-5.995zm-76.564 102.671a5.995 5.995 0 0 1 5.995-5.995h17.263a5.995 5.995 0 1 1 0 11.99h-17.263a5.995 5.995 0 0 1-5.995-5.995zM82.01 195.48a5.995 5.995 0 0 1 5.995-5.995h17.263a5.995 5.995 0 1 1 0 11.99H88.005a5.995 5.995 0 0 1-5.995-5.995zm0 29.055a5.995 5.995 0 0 1 5.995-5.995h17.263a5.995 5.995 0 1 1 0 11.99H88.005a5.995 5.995 0 0 1-5.995-5.995zm0 29.084a5.995 5.995 0 0 1 5.995-5.995h17.263a5.995 5.995 0 1 1 0 11.99H88.005a5.995 5.995 0 0 1-5.995-5.995zm41.442-58.139a5.995 5.995 0 0 1 5.995-5.995h17.263a5.995 5.995 0 1 1 0 11.99h-17.263a5.995 5.995 0 0 1-5.995-5.995zm0 58.139a5.995 5.995 0 0 1 5.995-5.995h17.263a5.995 5.995 0 1 1 0 11.99h-17.263a5.995 5.995 0 0 1-5.995-5.995zm-12.189 29.055a5.995 5.995 0 0 1-5.995 5.995H88.005a5.995 5.995 0 1 1 0-11.99h17.263a5.995 5.995 0 0 1 5.995 5.995zm12.189-58.139a5.995 5.995 0 0 1 5.995-5.995h17.263a5.995 5.995 0 1 1 0 11.99h-17.263a5.995 5.995 0 0 1-5.995-5.995zm265.096 58.139a5.995 5.995 0 0 1-5.995 5.995H365.29a5.995 5.995 0 1 1 0-11.99h17.263a5.995 5.995 0 0 1 5.995 5.995zm12.189-87.194a5.995 5.995 0 0 1 5.995-5.995h17.235a5.995 5.995 0 1 1 0 11.99h-17.235a5.995 5.995 0 0 1-5.995-5.995zm0 29.055a5.995 5.995 0 0 1 5.995-5.995h17.235a5.995 5.995 0 1 1 0 11.99h-17.235a5.995 5.995 0 0 1-5.995-5.995zm-41.442 29.084a5.995 5.995 0 0 1 5.995-5.995h17.263a5.995 5.995 0 1 1 0 11.99H365.29a5.995 5.995 0 0 1-5.995-5.995zm0-58.139a5.995 5.995 0 0 1 5.995-5.995h17.263a5.995 5.995 0 1 1 0 11.99H365.29a5.995 5.995 0 0 1-5.995-5.995zm0 29.055a5.995 5.995 0 0 1 5.995-5.995h17.263a5.995 5.995 0 1 1 0 11.99H365.29a5.995 5.995 0 0 1-5.995-5.995zm41.442 29.084a5.995 5.995 0 0 1 5.995-5.995h17.235a5.995 5.995 0 1 1 0 11.99h-17.235a5.995 5.995 0 0 1-5.995-5.995zm0 29.055a5.995 5.995 0 0 1 5.995-5.995h17.235a5.995 5.995 0 1 1 0 11.99h-17.235a5.995 5.995 0 0 1-5.995-5.995z" fill="#0d5ef4" opacity="1" data-original="#000000" class=""></path></g></svg>