<svg xmlns="http://www.w3.org/2000/svg" version="1.1" xmlns:xlink="http://www.w3.org/1999/xlink" width="35" height="35" x="0" y="0" viewBox="0 0 512 512" style="enable-background:new 0 0 512 512" xml:space="preserve" class=""><g><circle cx="302.08" cy="368.706" r="24.852" style="stroke-width:15;stroke-linecap:round;stroke-linejoin:round;stroke-miterlimit:10;" fill="none" stroke="#0d5ef4" stroke-width="15" stroke-linecap="round" stroke-linejoin="round" stroke-miterlimit="10" data-original="#000000" class="" opacity="1"></circle><circle cx="136.517" cy="310.767" r="24.852" style="stroke-width:15;stroke-linecap:round;stroke-linejoin:round;stroke-miterlimit:10;" fill="none" stroke="#0d5ef4" stroke-width="15" stroke-linecap="round" stroke-linejoin="round" stroke-miterlimit="10" data-original="#000000" class="" opacity="1"></circle><path d="M206.012 348.588v40.235M226.13 368.706h-40.236M376.283 285.996v7.87M401.054 310.767h-7.87M376.283 335.538v-7.87M351.512 310.767h7.87M136.517 471.276l-28.698-8.998a23.181 23.181 0 0 1-15.821-17.702l-6.931-35.707a23.178 23.178 0 0 0-13.161-16.684l-24.097-10.957h0M464.191 381.228h0l-24.097 10.957a23.183 23.183 0 0 0-13.161 16.684l-6.931 35.707a23.183 23.183 0 0 1-15.821 17.702l-28.698 8.998h0M232.07 319.493h5.318M274.612 319.493h5.318" style="stroke-width:15;stroke-linecap:round;stroke-linejoin:round;stroke-miterlimit:10;" fill="none" stroke="#0d5ef4" stroke-width="15" stroke-linecap="round" stroke-linejoin="round" stroke-miterlimit="10" data-original="#000000" class="" opacity="1"></path><path d="M249.244 411.629h57.78a58.393 58.393 0 0 1 50.351 28.82l22.271 37.916a52.956 52.956 0 0 0 45.662 26.135c33.787 0 58.933-31.212 51.743-64.225l-33.73-154.871a21.068 21.068 0 0 0-2.458-6.236M422.524 256.235l-3.135-3.854a21.083 21.083 0 0 0-16.355-7.78h-66.605a21.08 21.08 0 0 0-15.284 6.562l-21.627 22.765a21.08 21.08 0 0 1-15.284 6.562H227.77a21.08 21.08 0 0 1-15.284-6.562l-21.627-22.765a21.08 21.08 0 0 0-15.284-6.562H108.97a21.082 21.082 0 0 0-16.356 7.78l-19.688 24.207a21.089 21.089 0 0 0-4.244 8.816l-33.73 154.871c-7.19 33.013 17.956 64.225 51.743 64.225h0a52.957 52.957 0 0 0 45.662-26.135l22.271-37.916a58.395 58.395 0 0 1 50.351-28.82h15.238M374.59 244.601l-5.49-15.661a11.715 11.715 0 0 1 .232-8.358l7.171-17.312a11.714 11.714 0 0 1 5.746-6.074l23.11-11.113a11.714 11.714 0 0 0 6.638-10.557V151.47c0-4.502-2.58-8.606-6.638-10.557l-23.11-11.113a11.718 11.718 0 0 1-5.746-6.074l-7.171-17.312a11.71 11.71 0 0 1-.232-8.358l8.483-24.199a11.715 11.715 0 0 0-2.772-12.159l-17.01-17.01a11.715 11.715 0 0 0-12.159-2.772l-24.199 8.483c-2.72.953-5.696.871-8.358-.232l-17.312-7.171a11.714 11.714 0 0 1-6.074-5.746l-11.113-23.11a11.714 11.714 0 0 0-10.558-6.64h-24.056c-4.502 0-8.606 2.58-10.557 6.638l-11.113 23.11a11.718 11.718 0 0 1-6.074 5.746l-17.312 7.171a11.716 11.716 0 0 1-8.358.232l-24.199-8.483a11.713 11.713 0 0 0-12.159 2.772l-17.01 17.01a11.715 11.715 0 0 0-2.772 12.159l8.483 24.199c.953 2.72.871 5.696-.232 8.358l-7.171 17.312a11.714 11.714 0 0 1-5.746 6.074l-23.11 11.113a11.714 11.714 0 0 0-6.638 10.557v24.056c0 4.502 2.58 8.606 6.638 10.557l23.11 11.113a11.718 11.718 0 0 1 5.746 6.074l7.171 17.312a11.71 11.71 0 0 1 .232 8.358l-5.49 15.661m89.168-154.115A78.469 78.469 0 0 1 256 84.779c43.475 0 78.718 35.243 78.718 78.718S299.475 242.215 256 242.215s-78.718-35.243-78.718-78.718c0-22.618 9.554-42.993 24.828-57.352" style="stroke-width:15;stroke-linecap:round;stroke-linejoin:round;stroke-miterlimit:10;" fill="none" stroke="#0d5ef4" stroke-width="15" stroke-linecap="round" stroke-linejoin="round" stroke-miterlimit="10" data-original="#000000" class="" opacity="1"></path></g></svg>